<mxfile host="app.diagrams.net" modified="2022-11-29T00:47:52.720Z" agent="5.0 (Windows NT 10.0; Win64; x64) AppleWebKit/537.36 (KHTML, like Gecko) Chrome/105.0.0.0 Safari/537.36 Edg/105.0.1343.42" etag="tZKqCEKPFM7vBT3KaE7j" version="20.6.0" type="github">
  <diagram id="uQX-BmTMoWQf7kJKWobK" name="第 1 页">
    <mxGraphModel dx="1037" dy="570" grid="1" gridSize="10" guides="1" tooltips="1" connect="1" arrows="1" fold="1" page="1" pageScale="1" pageWidth="827" pageHeight="1169" math="0" shadow="0">
      <root>
        <mxCell id="0" />
        <mxCell id="1" parent="0" />
        <mxCell id="L8ozR5UkA_o1c3PNm9jG-1" value="Window Title" style="strokeWidth=1;shadow=0;dashed=0;align=center;html=1;shape=mxgraph.mockup.containers.window;align=left;verticalAlign=top;spacingLeft=8;strokeColor2=#008cff;strokeColor3=#c4c4c4;fontColor=#666666;mainText=;fontSize=17;labelBackgroundColor=none;" vertex="1" parent="1">
          <mxGeometry x="40" y="80" width="760" height="440" as="geometry" />
        </mxCell>
        <mxCell id="L8ozR5UkA_o1c3PNm9jG-5" value="数据块详细" style="swimlane;whiteSpace=wrap;html=1;startSize=23;" vertex="1" parent="1">
          <mxGeometry x="40" y="160" width="200" height="360" as="geometry" />
        </mxCell>
        <mxCell id="L8ozR5UkA_o1c3PNm9jG-7" value="当前第2块" style="text;html=1;strokeColor=none;fillColor=none;align=center;verticalAlign=middle;whiteSpace=wrap;rounded=0;fontSize=14;" vertex="1" parent="L8ozR5UkA_o1c3PNm9jG-5">
          <mxGeometry x="90" y="30" width="100" height="30" as="geometry" />
        </mxCell>
        <mxCell id="L8ozR5UkA_o1c3PNm9jG-10" value="跳转" style="labelPosition=center;verticalLabelPosition=middle;align=center;html=1;shape=mxgraph.basic.shaded_button;dx=10;fillColor=#E6E6E6;strokeColor=none;whiteSpace=wrap;fontSize=14;" vertex="1" parent="L8ozR5UkA_o1c3PNm9jG-5">
          <mxGeometry x="115" y="75" width="50" height="20" as="geometry" />
        </mxCell>
        <mxCell id="L8ozR5UkA_o1c3PNm9jG-11" value="上一块" style="labelPosition=center;verticalLabelPosition=middle;align=center;html=1;shape=mxgraph.basic.shaded_button;dx=10;fillColor=#E6E6E6;strokeColor=none;whiteSpace=wrap;fontSize=14;" vertex="1" parent="L8ozR5UkA_o1c3PNm9jG-5">
          <mxGeometry x="20" y="120" width="70" height="40" as="geometry" />
        </mxCell>
        <mxCell id="L8ozR5UkA_o1c3PNm9jG-17" value="下一块" style="labelPosition=center;verticalLabelPosition=middle;align=center;html=1;shape=mxgraph.basic.shaded_button;dx=10;fillColor=#E6E6E6;strokeColor=none;whiteSpace=wrap;fontSize=14;" vertex="1" parent="L8ozR5UkA_o1c3PNm9jG-5">
          <mxGeometry x="105" y="120" width="70" height="40" as="geometry" />
        </mxCell>
        <mxCell id="L8ozR5UkA_o1c3PNm9jG-6" value="共4块" style="text;html=1;strokeColor=none;fillColor=none;align=center;verticalAlign=middle;whiteSpace=wrap;rounded=0;fontSize=14;" vertex="1" parent="1">
          <mxGeometry x="50" y="190" width="60" height="30" as="geometry" />
        </mxCell>
        <mxCell id="L8ozR5UkA_o1c3PNm9jG-8" value="块索引" style="text;html=1;strokeColor=none;fillColor=none;align=center;verticalAlign=middle;whiteSpace=wrap;rounded=0;fontSize=14;" vertex="1" parent="1">
          <mxGeometry x="50" y="230" width="60" height="30" as="geometry" />
        </mxCell>
        <mxCell id="L8ozR5UkA_o1c3PNm9jG-9" value="2" style="rounded=0;whiteSpace=wrap;html=1;fontSize=14;" vertex="1" parent="1">
          <mxGeometry x="110" y="235" width="30" height="20" as="geometry" />
        </mxCell>
      </root>
    </mxGraphModel>
  </diagram>
</mxfile>
